<svg width="86" height="86" viewBox="0 0 86 86" fill="none" xmlns="http://www.w3.org/2000/svg">
<circle cx="42.9198" cy="48.4834" r="26.8336" fill="#FFC39B"/>
<path d="M14.3364 16.1492C15.7171 16.1492 16.8364 17.2685 16.8364 18.6492V37.2009C19.6644 30.8935 24.7022 25.7935 30.9644 22.8836C30.8044 22.5541 30.7114 22.1855 30.7114 21.7947C30.7115 20.4143 31.8311 19.2951 33.2114 19.2947H52.0874C53.4681 19.2947 54.5873 20.414 54.5874 21.7947C54.5874 22.0692 54.5412 22.3327 54.4595 22.5798C61.4528 25.6113 67.0023 31.3434 69.7925 38.4617C70.1418 38.2761 70.5403 38.1707 70.9634 38.1707C72.3441 38.1707 73.4634 39.29 73.4634 40.6707V54.8279C73.4632 56.2084 72.344 57.3279 70.9634 57.3279C70.8146 57.3279 70.6694 57.3118 70.5278 57.2869C66.9509 69.0716 56.0036 77.6501 43.0503 77.6502L42.3091 77.6404C29.5907 77.3181 18.9291 68.7255 15.4976 57.0398C15.1504 57.2225 14.756 57.3279 14.3364 57.3279C12.9558 57.3279 11.8366 56.2084 11.8364 54.8279V18.6492C11.8364 17.2685 12.9557 16.1492 14.3364 16.1492ZM41.1382 24.2947C28.3826 25.2707 18.3365 35.9306 18.3364 48.9363C18.3367 62.5852 29.4014 73.6501 43.0503 73.6502C56.6992 73.6501 67.7639 62.5852 67.7642 48.9363C67.7641 35.9306 57.7179 25.2708 44.9624 24.2947H41.1382ZM41.0776 54.614C43.1824 54.6142 44.2434 56.0047 45.0034 56.9548C45.8162 57.9709 46.3292 58.5466 47.3696 58.5466C48.5133 58.5464 49.1627 57.9971 49.855 57.2547C50.1741 56.9124 50.591 56.4214 51.0239 56.072C51.5009 55.6871 52.1224 55.3597 52.9263 55.4011C55.4266 55.53 56.4906 57.4365 56.9204 58.324C57.161 58.821 56.9525 59.4192 56.4556 59.6599C55.9588 59.9002 55.3614 59.6926 55.1206 59.1961C54.7394 58.409 54.1365 57.4659 52.8228 57.3982C52.6732 57.3906 52.522 57.4333 52.2798 57.6287C51.9934 57.8599 51.7433 58.1627 51.3179 58.6189C50.5208 59.4737 49.3702 60.5466 47.3687 60.5466C45.2636 60.5465 44.2029 59.155 43.4429 58.2048C42.6301 57.1888 42.1171 56.614 41.0767 56.614C40.6333 56.6142 40.2895 56.7896 39.9331 57.1638C39.5417 57.5749 39.2085 58.1478 38.8003 58.8621C38.4222 59.5236 37.9689 60.328 37.3774 60.949C36.751 61.6068 35.9147 62.1187 34.7856 62.1189C32.7962 62.119 31.4291 61.0316 30.562 59.8552C29.7085 58.6972 29.273 57.3777 29.0942 56.6345C28.9651 56.0976 29.2956 55.5567 29.8325 55.4275C30.3692 55.2986 30.9092 55.6293 31.0386 56.1658C31.1818 56.7615 31.5328 57.8021 32.1714 58.6687C32.7966 59.5169 33.6286 60.1188 34.7847 60.1189C35.2282 60.1189 35.5727 59.9443 35.9292 59.5701C36.3209 59.1588 36.6545 58.5847 37.063 57.8699C37.4409 57.2085 37.8937 56.4058 38.4849 55.7849C39.1115 55.127 39.9483 54.614 41.0776 54.614ZM52.355 37.0974C53.4593 37.0976 54.3548 37.9931 54.355 39.0974V45.4783C54.355 46.5827 53.4594 47.4781 52.355 47.4783C51.2504 47.4783 50.355 46.5828 50.355 45.4783V39.0974C50.3551 37.993 51.2505 37.0975 52.355 37.0974ZM33.2124 38.6824C34.3167 38.6826 35.2122 39.5781 35.2124 40.6824V44.615C35.2124 45.7194 34.3168 46.6148 33.2124 46.615C32.1078 46.615 31.2124 45.7196 31.2124 44.615V40.6824C31.2126 39.578 32.108 38.6824 33.2124 38.6824ZM64.2876 23.5037C64.6314 23.2777 65.048 23.1906 65.4536 23.2595C65.8593 23.3286 66.2244 23.5486 66.4741 23.8757C66.7119 24.2189 66.8059 24.6419 66.7358 25.0535C66.6657 25.465 66.4371 25.8328 66.0991 26.0779C65.7543 26.3121 65.333 26.4064 64.9214 26.3406C64.6149 26.2871 64.331 26.1432 64.106 25.9285C63.881 25.7138 63.7246 25.4371 63.6567 25.1336C63.589 24.8301 63.613 24.5134 63.7251 24.2234C63.8374 23.9333 64.0331 23.6826 64.2876 23.5037ZM65.9458 7.78786C67.128 7.51785 68.3662 7.64621 69.4683 8.15211C70.5705 8.65818 71.4756 9.51388 72.0415 10.5867C72.6073 11.6595 72.8029 12.8893 72.5981 14.0847C72.3964 15.2485 71.8241 16.3157 70.9673 17.1287C70.1106 17.9416 69.0149 18.4569 67.8423 18.5974L67.6704 19.6248C67.6362 19.8283 67.5621 20.0231 67.4526 20.198C67.3431 20.373 67.1999 20.5255 67.0317 20.6453C66.8635 20.7651 66.6725 20.8509 66.4712 20.8972C66.27 20.9434 66.0614 20.9491 65.8579 20.9148L65.853 20.9138C65.4425 20.8438 65.0767 20.6137 64.8354 20.2742C64.5942 19.9346 64.4968 19.5131 64.5659 19.1023L64.6958 18.3416V18.324L64.9595 16.7732C64.9851 16.6825 65.0196 16.5942 65.061 16.5095C65.0903 16.3997 65.1309 16.2931 65.1831 16.1922C65.2401 16.1209 65.3032 16.0542 65.3716 15.9939C65.4387 15.9066 65.5153 15.827 65.5991 15.7556C65.6881 15.704 65.782 15.661 65.8794 15.6277C65.9647 15.5788 66.055 15.5378 66.1479 15.5056C66.2531 15.4917 66.3596 15.4884 66.4653 15.4959C66.5663 15.4826 66.6684 15.4787 66.77 15.4851L66.7749 15.4861C67.3917 15.5911 68.0252 15.4466 68.5356 15.0847C69.0459 14.7228 69.3916 14.1731 69.4966 13.5564C69.6016 12.9395 69.4571 12.3062 69.0952 11.7957C68.7333 11.2853 68.1837 10.9398 67.5669 10.8347C67.1585 10.7649 66.7387 10.8032 66.3501 10.947C65.9615 11.0909 65.6176 11.3351 65.353 11.6541C65.0867 11.9754 64.7031 12.1777 64.2876 12.2166C63.8722 12.2553 63.4584 12.1273 63.1372 11.8611C62.816 11.5948 62.6136 11.2121 62.5747 10.7966C62.5358 10.3811 62.6639 9.96661 62.9302 9.64528C63.7033 8.71102 64.7636 8.05794 65.9458 7.78786Z" fill="#E37C37"/>
<path d="M14.3364 16.1492L14.3364 15.6492H14.3364V16.1492ZM16.8364 37.2009H16.3364C16.3364 37.4368 16.5012 37.6405 16.7318 37.6899C16.9625 37.7392 17.1962 37.6207 17.2927 37.4055L16.8364 37.2009ZM30.9644 22.8836L31.1751 23.337C31.2966 23.2805 31.3904 23.1775 31.4354 23.0512C31.4804 22.9249 31.4727 22.7858 31.4142 22.6652L30.9644 22.8836ZM30.7114 21.7947L30.2114 21.7947V21.7947H30.7114ZM33.2114 19.2947V18.7947H33.2113L33.2114 19.2947ZM54.5874 21.7947H55.0874V21.7947L54.5874 21.7947ZM54.4595 22.5798L53.9848 22.4228C53.9035 22.6685 54.0231 22.9357 54.2606 23.0386L54.4595 22.5798ZM69.7925 38.4617L69.327 38.6442C69.379 38.7769 69.4852 38.8811 69.619 38.9306C69.7527 38.9801 69.9012 38.9701 70.0271 38.9032L69.7925 38.4617ZM70.9634 38.1707V37.6707H70.9633L70.9634 38.1707ZM73.4634 40.6707H73.9634V40.6707L73.4634 40.6707ZM73.4634 54.8279L73.9634 54.828V54.8279H73.4634ZM70.9634 57.3279L70.9633 57.8279H70.9634V57.3279ZM70.5278 57.2869L70.6145 56.7945C70.3655 56.7506 70.1228 56.8996 70.0494 57.1417L70.5278 57.2869ZM43.0503 77.6502L43.0437 78.1502H43.0503L43.0503 77.6502ZM42.3091 77.6404L42.2964 78.1403L42.3025 78.1404L42.3091 77.6404ZM15.4976 57.0398L15.9773 56.8989C15.9351 56.7551 15.8305 56.6378 15.6925 56.5794C15.5544 56.5209 15.3974 56.5275 15.2648 56.5973L15.4976 57.0398ZM14.3364 57.3279V57.8279H14.3364L14.3364 57.3279ZM11.8364 54.8279H11.3364V54.828L11.8364 54.8279ZM41.1382 24.2947V23.7947C41.1255 23.7947 41.1127 23.7952 41.1 23.7961L41.1382 24.2947ZM18.3364 48.9363L17.8364 48.9363V48.9363L18.3364 48.9363ZM43.0503 73.6502L43.0503 74.1502H43.0503L43.0503 73.6502ZM67.7642 48.9363L68.2642 48.9363V48.9363L67.7642 48.9363ZM44.9624 24.2947L45.0006 23.7961C44.9879 23.7952 44.9751 23.7947 44.9624 23.7947V24.2947ZM41.0776 54.614L41.0777 54.114H41.0776V54.614ZM45.0034 56.9548L44.613 57.2672L44.613 57.2672L45.0034 56.9548ZM47.3696 58.5466V59.0466H47.3697L47.3696 58.5466ZM49.855 57.2547L50.2207 57.5956L50.2207 57.5956L49.855 57.2547ZM51.0239 56.072L50.7099 55.6829L50.7099 55.6829L51.0239 56.072ZM52.9263 55.4011L52.952 54.9018H52.952L52.9263 55.4011ZM56.9204 58.324L57.3705 58.1061L57.3704 58.106L56.9204 58.324ZM56.4556 59.6599L56.6733 60.11L56.6735 60.1099L56.4556 59.6599ZM55.1206 59.1961L54.6706 59.414L54.6707 59.4142L55.1206 59.1961ZM52.8228 57.3982L52.8485 56.8989L52.8481 56.8988L52.8228 57.3982ZM52.2798 57.6287L51.9658 57.2395L51.9657 57.2396L52.2798 57.6287ZM51.3179 58.6189L51.6836 58.9599L51.6836 58.9599L51.3179 58.6189ZM47.3687 60.5466L47.3686 61.0466H47.3687L47.3687 60.5466ZM43.4429 58.2048L43.8333 57.8925L43.8333 57.8925L43.4429 58.2048ZM41.0767 56.614V56.114H41.0765L41.0767 56.614ZM39.9331 57.1638L39.571 56.819L39.571 56.819L39.9331 57.1638ZM38.8003 58.8621L38.3662 58.614H38.3662L38.8003 58.8621ZM37.3774 60.949L37.7395 61.2938L37.7395 61.2938L37.3774 60.949ZM34.7856 62.1189L34.7857 62.6189H34.7857L34.7856 62.1189ZM30.562 59.8552L30.1595 60.1519L30.1595 60.1519L30.562 59.8552ZM29.0942 56.6345L28.6081 56.7514L28.6081 56.7515L29.0942 56.6345ZM29.8325 55.4275L29.7158 54.9413L29.7156 54.9414L29.8325 55.4275ZM31.0386 56.1658L31.5247 56.0489L31.5246 56.0486L31.0386 56.1658ZM32.1714 58.6687L31.7689 58.9653L31.7689 58.9654L32.1714 58.6687ZM34.7847 60.1189L34.7846 60.6189H34.7847L34.7847 60.1189ZM35.9292 59.5701L36.2912 59.9149L36.2913 59.9149L35.9292 59.5701ZM37.063 57.8699L37.4971 58.118V58.118L37.063 57.8699ZM38.4849 55.7849L38.1228 55.4401L38.1228 55.4401L38.4849 55.7849ZM52.355 37.0974L52.3551 36.5974H52.355L52.355 37.0974ZM54.355 39.0974H54.855V39.0974L54.355 39.0974ZM52.355 47.4783L52.355 47.9783H52.3551L52.355 47.4783ZM50.355 39.0974L49.855 39.0974V39.0974H50.355ZM33.2124 38.6824L33.2125 38.1824H33.2124V38.6824ZM35.2124 40.6824H35.7124V40.6823L35.2124 40.6824ZM35.2124 44.615L35.7124 44.615V44.615H35.2124ZM33.2124 46.615V47.115H33.2125L33.2124 46.615ZM31.2124 44.615H30.7124V44.615L31.2124 44.615ZM31.2124 40.6824L30.7124 40.6823V40.6824H31.2124ZM64.2876 23.5037L64.0129 23.0859C64.0086 23.0887 64.0043 23.0916 64.0001 23.0946L64.2876 23.5037ZM65.4536 23.2595L65.5376 22.7666L65.5374 22.7666L65.4536 23.2595ZM66.4741 23.8757L66.8851 23.5909C66.8807 23.5847 66.8762 23.5785 66.8716 23.5724L66.4741 23.8757ZM66.7358 25.0535L67.2287 25.1374V25.1374L66.7358 25.0535ZM66.0991 26.0779L66.3801 26.4915C66.3843 26.4886 66.3885 26.4857 66.3927 26.4827L66.0991 26.0779ZM64.9214 26.3406L64.8354 26.8332L64.8424 26.8343L64.9214 26.3406ZM64.106 25.9285L63.7607 26.2902L63.7608 26.2902L64.106 25.9285ZM63.6567 25.1336L63.1688 25.2426L63.1688 25.2426L63.6567 25.1336ZM63.7251 24.2234L63.2588 24.043L63.2587 24.0431L63.7251 24.2234ZM65.9458 7.78786L65.8345 7.30041L65.8344 7.30041L65.9458 7.78786ZM69.4683 8.15211L69.6769 7.69772L69.6769 7.6977L69.4683 8.15211ZM72.0415 10.5867L72.4838 10.3534L72.4838 10.3534L72.0415 10.5867ZM72.5981 14.0847L73.0908 14.1701L73.091 14.1691L72.5981 14.0847ZM70.9673 17.1287L71.3115 17.4914V17.4914L70.9673 17.1287ZM67.8423 18.5974L67.7828 18.101C67.5624 18.1274 67.3858 18.296 67.3491 18.5149L67.8423 18.5974ZM67.6704 19.6248L68.1635 19.7077L68.1636 19.7073L67.6704 19.6248ZM67.4526 20.198L67.8764 20.4633L67.8765 20.4632L67.4526 20.198ZM67.0317 20.6453L67.3217 21.0526L67.3218 21.0526L67.0317 20.6453ZM66.4712 20.8972L66.5831 21.3846L66.5832 21.3845L66.4712 20.8972ZM65.8579 20.9148L65.7599 21.4051C65.7649 21.4061 65.7699 21.407 65.775 21.4079L65.8579 20.9148ZM65.853 20.9138L65.9511 20.4235C65.9464 20.4226 65.9418 20.4218 65.9371 20.421L65.853 20.9138ZM64.8354 20.2742L64.4278 20.5637L64.4278 20.5638L64.8354 20.2742ZM64.5659 19.1023L64.073 19.0182L64.0728 19.0194L64.5659 19.1023ZM64.6958 18.3416L65.1887 18.4257C65.1934 18.3979 65.1958 18.3698 65.1958 18.3416H64.6958ZM64.6958 18.324L64.2029 18.2402C64.1982 18.2679 64.1958 18.2959 64.1958 18.324H64.6958ZM64.9595 16.7732L64.4783 16.6374C64.4734 16.6545 64.4695 16.6719 64.4665 16.6894L64.9595 16.7732ZM65.061 16.5095L65.5102 16.7292C65.5245 16.7 65.5358 16.6696 65.5442 16.6383L65.061 16.5095ZM65.1831 16.1922L64.7926 15.8799C64.772 15.9056 64.754 15.9333 64.7389 15.9626L65.1831 16.1922ZM65.3716 15.9939L65.7022 16.369C65.7263 16.3478 65.7483 16.3242 65.7679 16.2988L65.3716 15.9939ZM65.5991 15.7556L65.3481 15.3232C65.3223 15.3382 65.2978 15.3555 65.275 15.3749L65.5991 15.7556ZM65.8794 15.6277L66.0413 16.1008C66.0714 16.0905 66.1004 16.0773 66.128 16.0615L65.8794 15.6277ZM66.1479 15.5056L66.0824 15.0099C66.0491 15.0144 66.0163 15.0221 65.9845 15.0331L66.1479 15.5056ZM66.4653 15.4959L66.4301 15.9946C66.4636 15.997 66.4972 15.996 66.5305 15.9916L66.4653 15.4959ZM66.77 15.4851L66.8681 14.9948C66.8462 14.9904 66.824 14.9875 66.8017 14.9861L66.77 15.4851ZM66.7749 15.4861L66.6768 15.9764C66.6816 15.9773 66.6863 15.9782 66.691 15.979L66.7749 15.4861ZM68.5356 15.0847L68.8248 15.4926L68.8249 15.4926L68.5356 15.0847ZM69.4966 13.5564L69.9895 13.6404V13.6403L69.4966 13.5564ZM69.0952 11.7957L69.5031 11.5065L69.5031 11.5064L69.0952 11.7957ZM67.5669 10.8347L67.4826 11.3276L67.4829 11.3276L67.5669 10.8347ZM66.3501 10.947L66.1765 10.4781L66.1765 10.4781L66.3501 10.947ZM65.353 11.6541L64.9681 11.3349L64.9681 11.335L65.353 11.6541ZM64.2876 12.2166L64.3341 12.7144L64.3342 12.7144L64.2876 12.2166ZM63.1372 11.8611L62.8181 12.246L62.8182 12.2461L63.1372 11.8611ZM62.5747 10.7966L62.0769 10.8433V10.8433L62.5747 10.7966ZM62.9302 9.64528L63.3151 9.96433L63.3154 9.96405L62.9302 9.64528ZM14.3364 16.1492L14.3364 16.6492C15.441 16.6492 16.3364 17.5447 16.3364 18.6492H16.8364H17.3364C17.3364 16.9923 15.9932 15.6492 14.3364 15.6492L14.3364 16.1492ZM16.8364 18.6492H16.3364V37.2009H16.8364H17.3364V18.6492H16.8364ZM16.8364 37.2009L17.2927 37.4055C20.0713 31.208 25.0219 26.1963 31.1751 23.337L30.9644 22.8836L30.7536 22.4301C24.3825 25.3907 19.2574 30.579 16.3802 36.9964L16.8364 37.2009ZM30.9644 22.8836L31.4142 22.6652C31.2851 22.3994 31.2114 22.1051 31.2114 21.7947H30.7114H30.2114C30.2114 22.2659 30.3237 22.7088 30.5145 23.1019L30.9644 22.8836ZM30.7114 21.7947L31.2114 21.7947C31.2115 20.6905 32.1071 19.795 33.2116 19.7947L33.2114 19.2947L33.2113 18.7947C31.555 18.7951 30.2115 20.138 30.2114 21.7947L30.7114 21.7947ZM33.2114 19.2947V19.7947H52.0874V19.2947V18.7947H33.2114V19.2947ZM52.0874 19.2947V19.7947C53.1919 19.7947 54.0874 20.6902 54.0874 21.7947L54.5874 21.7947L55.0874 21.7947C55.0873 20.1379 53.7442 18.7947 52.0874 18.7947V19.2947ZM54.5874 21.7947H54.0874C54.0874 22.0127 54.0508 22.2232 53.9848 22.4228L54.4595 22.5798L54.9342 22.7369C55.0317 22.4422 55.0874 22.1258 55.0874 21.7947H54.5874ZM54.4595 22.5798L54.2606 23.0386C61.1321 26.0173 66.5855 31.6501 69.327 38.6442L69.7925 38.4617L70.258 38.2792C67.4191 31.0367 61.7734 25.2054 54.6583 22.1211L54.4595 22.5798ZM69.7925 38.4617L70.0271 38.9032C70.3061 38.755 70.6243 38.6707 70.9634 38.6707L70.9634 38.1707L70.9633 37.6707C70.4563 37.6707 69.9775 37.7972 69.5579 38.0201L69.7925 38.4617ZM70.9634 38.1707V38.6707C72.0679 38.6707 72.9634 39.5661 72.9634 40.6707L73.4634 40.6707L73.9634 40.6707C73.9634 39.0138 72.6202 37.6707 70.9634 37.6707V38.1707ZM73.4634 40.6707H72.9634V54.8279H73.4634H73.9634V40.6707H73.4634ZM73.4634 54.8279L72.9634 54.8278C72.9632 55.9323 72.0677 56.8279 70.9634 56.8279V57.3279V57.8279C72.6202 57.8279 73.9631 56.4845 73.9634 54.828L73.4634 54.8279ZM70.9634 57.3279L70.9634 56.8279C70.8505 56.8279 70.7351 56.8157 70.6145 56.7945L70.5278 57.2869L70.4411 57.7793C70.6038 57.808 70.7788 57.8279 70.9633 57.8279L70.9634 57.3279ZM70.5278 57.2869L70.0494 57.1417C66.5346 68.7217 55.7772 77.1501 43.0503 77.1502L43.0503 77.6502L43.0503 78.1502C56.23 78.1501 67.3672 69.4216 71.0063 57.4321L70.5278 57.2869ZM43.0503 77.6502L43.0569 77.1502L42.3157 77.1404L42.3091 77.6404L42.3025 78.1404L43.0437 78.1501L43.0503 77.6502ZM42.3091 77.6404L42.3217 77.1406C29.8259 76.8239 19.3492 68.3814 15.9773 56.8989L15.4976 57.0398L15.0178 57.1807C18.509 69.0695 29.3555 77.8123 42.2964 78.1402L42.3091 77.6404ZM15.4976 57.0398L15.2648 56.5973C14.9859 56.744 14.671 56.8279 14.3364 56.8279L14.3364 57.3279L14.3364 57.8279C14.8409 57.8279 15.3148 57.7009 15.7303 57.4823L15.4976 57.0398ZM14.3364 57.3279V56.8279C13.2321 56.8279 12.3366 55.9323 12.3364 54.8278L11.8364 54.8279L11.3364 54.828C11.3367 56.4845 12.6796 57.8279 14.3364 57.8279V57.3279ZM11.8364 54.8279H12.3364V18.6492H11.8364H11.3364V54.8279H11.8364ZM11.8364 18.6492H12.3364C12.3364 17.5446 13.2319 16.6492 14.3364 16.6492V16.1492V15.6492C12.6796 15.6492 11.3364 16.9923 11.3364 18.6492H11.8364ZM41.1382 24.2947L41.1 23.7961C28.0859 24.792 17.8365 35.6673 17.8364 48.9363L18.3364 48.9363H18.8364C18.8365 36.1939 28.6793 25.7495 41.1763 24.7932L41.1382 24.2947ZM18.3364 48.9363L17.8364 48.9363C17.8367 62.8613 29.1252 74.1501 43.0503 74.1502L43.0503 73.6502L43.0503 73.1502C29.6775 73.1501 18.8367 62.3091 18.8364 48.9363L18.3364 48.9363ZM43.0503 73.6502L43.0503 74.1502C56.9754 74.1501 68.2639 62.8613 68.2642 48.9363L67.7642 48.9363L67.2642 48.9363C67.2639 62.3091 56.4231 73.1501 43.0503 73.1502L43.0503 73.6502ZM67.7642 48.9363L68.2642 48.9363C68.2641 35.6673 58.0147 24.792 45.0006 23.7961L44.9624 24.2947L44.9243 24.7932C57.4212 25.7495 67.2641 36.194 67.2642 48.9363H67.7642ZM44.9624 24.2947V23.7947H41.1382V24.2947V24.7947H44.9624V24.2947ZM41.0776 54.614L41.0776 55.114C42.9167 55.1142 43.8406 56.3016 44.613 57.2672L45.0034 56.9548L45.3939 56.6425C44.6463 55.7079 43.4482 54.1142 41.0777 54.114L41.0776 54.614ZM45.0034 56.9548L44.613 57.2672C45.0124 57.7665 45.3817 58.216 45.8004 58.5312C46.2455 58.8663 46.7391 59.0466 47.3696 59.0466V58.5466V58.0466C46.9597 58.0466 46.6766 57.9391 46.4019 57.7323C46.1008 57.5056 45.8072 57.1593 45.3939 56.6425L45.0034 56.9548ZM47.3696 58.5466L47.3697 59.0466C48.7275 59.0463 49.5019 58.3665 50.2207 57.5956L49.855 57.2547L49.4893 56.9137C48.8235 57.6277 48.2991 58.0464 47.3695 58.0466L47.3696 58.5466ZM49.855 57.2547L50.2207 57.5956C50.5649 57.2265 50.9415 56.7811 51.3379 56.4611L51.0239 56.072L50.7099 55.6829C50.2405 56.0618 49.7833 56.5984 49.4893 56.9137L49.855 57.2547ZM51.0239 56.072L51.3379 56.4611C51.7569 56.1231 52.2608 55.8675 52.9006 55.9005L52.9263 55.4011L52.952 54.9018C51.9841 54.852 51.2449 55.2512 50.7099 55.6829L51.0239 56.072ZM52.9263 55.4011L52.9005 55.9005C55.1031 56.014 56.0518 57.6778 56.4704 58.5419L56.9204 58.324L57.3704 58.106C56.9293 57.1952 55.7501 55.046 52.952 54.9018L52.9263 55.4011ZM56.9204 58.324L56.4704 58.5418C56.5904 58.7899 56.4866 59.0894 56.2376 59.2099L56.4556 59.6599L56.6735 60.1099C57.4185 59.7491 57.7316 58.8521 57.3705 58.1061L56.9204 58.324ZM56.4556 59.6599L56.2379 59.2098C55.9895 59.3299 55.6909 59.2262 55.5705 58.9779L55.1206 59.1961L54.6707 59.4142C55.0319 60.159 55.928 60.4705 56.6733 60.11L56.4556 59.6599ZM55.1206 59.1961L55.5706 58.9781C55.1758 58.1631 54.4572 56.9817 52.8485 56.8989L52.8228 57.3982L52.797 57.8975C53.8158 57.95 54.3029 58.6548 54.6706 59.414L55.1206 59.1961ZM52.8228 57.3982L52.8481 56.8988C52.5359 56.883 52.2673 56.9963 51.9658 57.2395L52.2798 57.6287L52.5937 58.0178C52.6915 57.939 52.7456 57.9118 52.7691 57.9026C52.7836 57.8969 52.7869 57.897 52.7974 57.8976L52.8228 57.3982ZM52.2798 57.6287L51.9657 57.2396C51.6427 57.5004 51.3478 57.8536 50.9522 58.2779L51.3179 58.6189L51.6836 58.9599C52.1388 58.4717 52.3441 58.2193 52.5939 58.0177L52.2798 57.6287ZM51.3179 58.6189L50.9522 58.2779C50.1811 59.1049 49.1556 60.0466 47.3686 60.0466L47.3687 60.5466L47.3687 61.0466C49.5847 61.0466 50.8605 59.8426 51.6836 58.9599L51.3179 58.6189ZM47.3687 60.5466L47.3687 60.0466C45.5295 60.0466 44.6059 58.8584 43.8333 57.8925L43.4429 58.2048L43.0524 58.5172C43.7998 59.4516 44.9977 61.0465 47.3686 61.0466L47.3687 60.5466ZM43.4429 58.2048L43.8333 57.8925C43.4339 57.3932 43.0645 56.9439 42.6457 56.6288C42.2005 56.294 41.707 56.114 41.0767 56.114V56.614V57.114C41.4867 57.114 41.77 57.2214 42.0446 57.428C42.3456 57.6544 42.6391 58.0005 43.0524 58.5172L43.4429 58.2048ZM41.0767 56.614L41.0765 56.114C40.4631 56.1142 39.9961 56.3727 39.571 56.819L39.9331 57.1638L40.2952 57.5087C40.583 57.2065 40.8035 57.1141 41.0768 57.114L41.0767 56.614ZM39.9331 57.1638L39.571 56.819C39.1293 57.2829 38.766 57.9144 38.3662 58.614L38.8003 58.8621L39.2344 59.1102C39.651 58.3812 39.954 57.8669 40.2952 57.5086L39.9331 57.1638ZM38.8003 58.8621L38.3662 58.614C37.981 59.2881 37.5571 60.0354 37.0154 60.6042L37.3774 60.949L37.7395 61.2938C38.3807 60.6205 38.8635 59.7592 39.2344 59.1102L38.8003 58.8621ZM37.3774 60.949L37.0154 60.6042C36.4562 61.1913 35.7429 61.6187 34.7855 61.6189L34.7856 62.1189L34.7857 62.6189C36.0864 62.6187 37.0458 62.0222 37.7395 61.2938L37.3774 60.949ZM34.7856 62.1189L34.7856 61.6189C33.005 61.619 31.7716 60.6535 30.9645 59.5586L30.562 59.8552L30.1595 60.1519C31.0866 61.4097 32.5873 62.619 34.7857 62.6189L34.7856 62.1189ZM30.562 59.8552L30.9645 59.5586C30.1647 58.4735 29.7503 57.2238 29.5804 56.5176L29.0942 56.6345L28.6081 56.7515C28.7957 57.5315 29.2523 58.921 30.1595 60.1519L30.562 59.8552ZM29.0942 56.6345L29.5804 56.5176C29.5157 56.2486 29.6815 55.9781 29.9495 55.9136L29.8325 55.4275L29.7156 54.9414C28.9097 55.1353 28.4145 55.9465 28.6081 56.7514L29.0942 56.6345ZM29.8325 55.4275L29.9493 55.9137C30.2175 55.8493 30.4878 56.0147 30.5525 56.283L31.0386 56.1658L31.5246 56.0486C31.3306 55.2439 30.5208 54.748 29.7158 54.9413L29.8325 55.4275ZM31.0386 56.1658L30.5524 56.2827C30.7045 56.915 31.0764 58.0258 31.7689 58.9653L32.1714 58.6687L32.5739 58.3721C31.9891 57.5785 31.6592 56.608 31.5247 56.0489L31.0386 56.1658ZM32.1714 58.6687L31.7689 58.9654C32.4555 59.8969 33.4215 60.6188 34.7846 60.6189L34.7847 60.1189L34.7847 59.6189C33.8357 59.6188 33.1377 59.1369 32.5739 58.372L32.1714 58.6687ZM34.7847 60.1189L34.7847 60.6189C35.3974 60.6189 35.8654 60.362 36.2912 59.9149L35.9292 59.5701L35.5672 59.2252C35.2801 59.5266 35.0589 59.6189 34.7846 59.6189L34.7847 60.1189ZM35.9292 59.5701L36.2913 59.9149C36.7333 59.4508 37.0971 58.8179 37.4971 58.118L37.063 57.8699L36.6289 57.6218C36.2119 58.3514 35.9085 58.8668 35.5671 59.2253L35.9292 59.5701ZM37.063 57.8699L37.4971 58.118C37.8821 57.4443 38.3055 56.6984 38.847 56.1297L38.4849 55.7849L38.1228 55.4401C37.4819 56.1131 36.9998 56.9728 36.6289 57.6218L37.063 57.8699ZM38.4849 55.7849L38.8469 56.1298C39.4065 55.5423 40.1202 55.114 41.0776 55.114V54.614V54.114C39.7763 54.114 38.8165 54.7118 38.1228 55.4401L38.4849 55.7849ZM52.355 37.0974L52.3549 37.5974C53.1832 37.5976 53.8549 38.2693 53.855 39.0975L54.355 39.0974L54.855 39.0974C54.8548 37.7169 53.7354 36.5977 52.3551 36.5974L52.355 37.0974ZM54.355 39.0974H53.855V45.4783H54.355H54.855V39.0974H54.355ZM54.355 45.4783H53.855C53.855 46.3065 53.1833 46.9781 52.3549 46.9783L52.355 47.4783L52.3551 47.9783C53.7354 47.978 54.855 46.859 54.855 45.4783H54.355ZM52.355 47.4783L52.355 46.9783C51.5266 46.9783 50.855 46.3067 50.855 45.4783H50.355H49.855C49.855 46.859 50.9743 47.9782 52.355 47.9783L52.355 47.4783ZM50.355 45.4783H50.855V39.0974H50.355H49.855V45.4783H50.355ZM50.355 39.0974L50.855 39.0975C50.8551 38.2691 51.5267 37.5975 52.355 37.5974L52.355 37.0974L52.355 36.5974C50.9743 36.5975 49.8552 37.7169 49.855 39.0974L50.355 39.0974ZM33.2124 38.6824L33.2123 39.1824C34.0405 39.1825 34.7122 39.8543 34.7124 40.6825L35.2124 40.6824L35.7124 40.6823C35.7121 39.302 34.5928 38.1827 33.2125 38.1824L33.2124 38.6824ZM35.2124 40.6824H34.7124V44.615H35.2124H35.7124V40.6824H35.2124ZM35.2124 44.615L34.7124 44.615C34.7124 45.4432 34.0407 46.1148 33.2123 46.115L33.2124 46.615L33.2125 47.115C34.5929 47.1147 35.7124 45.9956 35.7124 44.615L35.2124 44.615ZM33.2124 46.615V46.115C32.384 46.115 31.7124 45.4434 31.7124 44.615L31.2124 44.615L30.7124 44.615C30.7124 45.9957 31.8317 47.115 33.2124 47.115V46.615ZM31.2124 44.615H31.7124V40.6824H31.2124H30.7124V44.615H31.2124ZM31.2124 40.6824L31.7124 40.6825C31.7126 39.8541 32.3842 39.1824 33.2124 39.1824V38.6824V38.1824C31.8317 38.1824 30.7127 39.3019 30.7124 40.6823L31.2124 40.6824ZM64.2876 23.5037L64.5623 23.9215C64.8002 23.7651 65.0887 23.7047 65.3698 23.7525L65.4536 23.2595L65.5374 22.7666C65.0073 22.6765 64.4626 22.7903 64.0129 23.0859L64.2876 23.5037ZM65.4536 23.2595L65.3697 23.7524C65.6512 23.8004 65.9041 23.953 66.0767 24.1791L66.4741 23.8757L66.8716 23.5724C66.5448 23.1442 66.0674 22.8569 65.5376 22.7666L65.4536 23.2595ZM66.4741 23.8757L66.0632 24.1605C66.2265 24.3962 66.2911 24.6868 66.2429 24.9695L66.7358 25.0535L67.2287 25.1374C67.3208 24.5969 67.1974 24.0416 66.8851 23.5909L66.4741 23.8757ZM66.7358 25.0535L66.2429 24.9695C66.1948 25.2521 66.0378 25.5047 65.8056 25.6731L66.0991 26.0779L66.3927 26.4827C66.8364 26.1609 67.1367 25.678 67.2287 25.1374L66.7358 25.0535ZM66.0991 26.0779L65.8182 25.6643C65.5784 25.8272 65.2857 25.8925 65.0003 25.8469L64.9214 26.3406L64.8424 26.8343C65.3802 26.9203 65.9303 26.7971 66.3801 26.4915L66.0991 26.0779ZM64.9214 26.3406L65.0074 25.848C64.7989 25.8116 64.6051 25.7136 64.4511 25.5667L64.106 25.9285L63.7608 26.2902C64.057 26.5729 64.4309 26.7625 64.8354 26.8331L64.9214 26.3406ZM64.106 25.9285L64.4512 25.5668C64.2977 25.4203 64.1909 25.2314 64.1447 25.0245L63.6567 25.1336L63.1688 25.2426C63.2582 25.6427 63.4643 26.0073 63.7607 26.2902L64.106 25.9285ZM63.6567 25.1336L64.1447 25.0246C64.0986 24.8179 64.1148 24.6019 64.1915 24.4037L63.7251 24.2234L63.2587 24.0431C63.1111 24.4249 63.0793 24.8423 63.1688 25.2426L63.6567 25.1336ZM63.7251 24.2234L64.1914 24.4038C64.2681 24.2056 64.4017 24.0346 64.5751 23.9128L64.2876 23.5037L64.0001 23.0946C63.6644 23.3305 63.4066 23.6609 63.2588 24.043L63.7251 24.2234ZM65.9458 7.78786L66.0571 8.2753C67.1318 8.02985 68.2575 8.1465 69.2597 8.60652L69.4683 8.15211L69.6769 7.6977C68.4748 7.14591 67.1242 7.00585 65.8345 7.30041L65.9458 7.78786ZM69.4683 8.15211L69.2596 8.60651C70.262 9.06671 71.0849 9.84477 71.5993 10.82L72.0415 10.5867L72.4838 10.3534C71.8664 9.18299 70.8791 8.24966 69.6769 7.69772L69.4683 8.15211ZM72.0415 10.5867L71.5992 10.8199C72.1136 11.7952 72.2915 12.9134 72.1053 14.0003L72.5981 14.0847L73.091 14.1691C73.3143 12.8652 73.101 11.5237 72.4838 10.3534L72.0415 10.5867ZM72.5981 14.0847L72.1055 13.9993C71.9221 15.0569 71.402 16.0269 70.6231 16.766L70.9673 17.1287L71.3115 17.4914C72.2461 16.6045 72.8706 15.4401 73.0908 14.1701L72.5981 14.0847ZM70.9673 17.1287L70.6231 16.766C69.8443 17.505 68.8485 17.9732 67.7828 18.101L67.8423 18.5974L67.9018 19.0939C69.1814 18.9405 70.3768 18.3783 71.3115 17.4914L70.9673 17.1287ZM67.8423 18.5974L67.3491 18.5149L67.1773 19.5423L67.6704 19.6248L68.1636 19.7073L68.3354 18.6799L67.8423 18.5974ZM67.6704 19.6248L67.1773 19.5418C67.154 19.6804 67.1035 19.8133 67.0288 19.9328L67.4526 20.198L67.8765 20.4632C68.0207 20.2328 68.1183 19.9761 68.1635 19.7077L67.6704 19.6248ZM67.4526 20.198L67.0288 19.9327C66.9538 20.0526 66.8559 20.1567 66.7417 20.238L67.0317 20.6453L67.3218 21.0526C67.544 20.8943 67.7324 20.6935 67.8764 20.4633L67.4526 20.198ZM67.0317 20.6453L66.7417 20.238C66.6269 20.3197 66.4964 20.3784 66.3591 20.4099L66.4712 20.8972L66.5832 21.3845C66.8486 21.3235 67.1 21.2104 67.3217 21.0526L67.0317 20.6453ZM66.4712 20.8972L66.3593 20.4099C66.2229 20.4412 66.0806 20.4452 65.9409 20.4217L65.8579 20.9148L65.775 21.4079C66.0423 21.4529 66.3171 21.4456 66.5831 21.3846L66.4712 20.8972ZM65.8579 20.9148L65.956 20.4245L65.9511 20.4235L65.853 20.9138L65.755 21.4041L65.7599 21.4051L65.8579 20.9148ZM65.853 20.9138L65.9371 20.421C65.6572 20.3732 65.4077 20.2163 65.243 19.9846L64.8354 20.2742L64.4278 20.5638C64.7456 21.0111 65.2278 21.3144 65.7689 21.4067L65.853 20.9138ZM64.8354 20.2742L65.2431 19.9846C65.0782 19.7525 65.012 19.4649 65.059 19.1853L64.5659 19.1023L64.0728 19.0194C63.9817 19.5614 64.1103 20.1167 64.4278 20.5637L64.8354 20.2742ZM64.5659 19.1023L65.0588 19.1865L65.1887 18.4257L64.6958 18.3416L64.2029 18.2574L64.0731 19.0182L64.5659 19.1023ZM64.6958 18.3416H65.1958V18.324H64.6958H64.1958V18.3416H64.6958ZM64.6958 18.324L65.1887 18.4078L65.4524 16.857L64.9595 16.7732L64.4665 16.6894L64.2029 18.2402L64.6958 18.324ZM64.9595 16.7732L65.4407 16.909C65.4574 16.8497 65.4808 16.7894 65.5102 16.7292L65.061 16.5095L64.6119 16.2899C64.5585 16.399 64.5127 16.5153 64.4783 16.6374L64.9595 16.7732ZM65.061 16.5095L65.5442 16.6383C65.5645 16.5619 65.5924 16.4892 65.6273 16.4217L65.1831 16.1922L64.7389 15.9626C64.6695 16.097 64.6161 16.2376 64.5779 16.3808L65.061 16.5095ZM65.1831 16.1922L65.5736 16.5044C65.6133 16.4548 65.6565 16.4093 65.7022 16.369L65.3716 15.9939L65.041 15.6188C64.9498 15.6991 64.8668 15.7871 64.7926 15.8799L65.1831 16.1922ZM65.3716 15.9939L65.7679 16.2988C65.8126 16.2406 65.8647 16.1862 65.9232 16.1363L65.5991 15.7556L65.275 15.3749C65.1658 15.4678 65.0648 15.5727 64.9753 15.6891L65.3716 15.9939ZM65.5991 15.7556L65.8501 16.1881C65.9111 16.1527 65.9753 16.1234 66.0413 16.1008L65.8794 15.6277L65.7175 15.1546C65.5888 15.1987 65.4651 15.2553 65.3481 15.3232L65.5991 15.7556ZM65.8794 15.6277L66.128 16.0615C66.1862 16.0282 66.2479 16.0001 66.3114 15.9782L66.1479 15.5056L65.9845 15.0331C65.8621 15.0754 65.7433 15.1294 65.6307 15.1939L65.8794 15.6277ZM66.1479 15.5056L66.2135 16.0013C66.2855 15.9918 66.3582 15.9895 66.4301 15.9946L66.4653 15.4959L66.5006 14.9971C66.3609 14.9872 66.2206 14.9917 66.0824 15.0099L66.1479 15.5056ZM66.4653 15.4959L66.5305 15.9916C66.601 15.9823 66.6706 15.9798 66.7384 15.9841L66.77 15.4851L66.8017 14.9861C66.6662 14.9775 66.5317 14.9828 66.4001 15.0001L66.4653 15.4959ZM66.77 15.4851L66.672 15.9754L66.6768 15.9764L66.7749 15.4861L66.873 14.9958L66.8681 14.9948L66.77 15.4851ZM66.7749 15.4861L66.691 15.979C67.4386 16.1063 68.2063 15.9312 68.8248 15.4926L68.5356 15.0847L68.2465 14.6768C67.8441 14.9621 67.3448 15.0759 66.8588 14.9932L66.7749 15.4861ZM68.5356 15.0847L68.8249 15.4926C69.4433 15.054 69.8622 14.3878 69.9895 13.6404L69.4966 13.5564L69.0037 13.4725C68.9209 13.9585 68.6485 14.3917 68.2464 14.6769L68.5356 15.0847ZM69.4966 13.5564L69.9895 13.6403C70.1168 12.8926 69.9417 12.1251 69.5031 11.5065L69.0952 11.7957L68.6873 12.0848C68.9726 12.4872 69.0864 12.9864 69.0037 13.4725L69.4966 13.5564ZM69.0952 11.7957L69.5031 11.5064C69.0644 10.8879 68.3983 10.4691 67.6509 10.3418L67.5669 10.8347L67.4829 11.3276C67.9691 11.4104 68.4022 11.6827 68.6874 12.0849L69.0952 11.7957ZM67.5669 10.8347L67.6511 10.3419C67.1567 10.2574 66.648 10.3036 66.1765 10.4781L66.3501 10.947L66.5237 11.4159C66.8294 11.3028 67.1602 11.2725 67.4826 11.3276L67.5669 10.8347ZM66.3501 10.947L66.1765 10.4781C65.7052 10.6526 65.2885 10.9485 64.9681 11.3349L65.353 11.6541L65.7379 11.9732C65.9466 11.7216 66.2177 11.5292 66.5237 11.4159L66.3501 10.947ZM65.353 11.6541L64.9681 11.335C64.7866 11.554 64.5248 11.6922 64.241 11.7187L64.2876 12.2166L64.3342 12.7144C64.8815 12.6632 65.3869 12.3968 65.738 11.9731L65.353 11.6541ZM64.2876 12.2166L64.2411 11.7187C63.9579 11.7452 63.6756 11.6579 63.4563 11.4761L63.1372 11.8611L62.8182 12.2461C63.2413 12.5967 63.7865 12.7655 64.3341 12.7144L64.2876 12.2166ZM63.1372 11.8611L63.4563 11.4762C63.2371 11.2944 63.0991 11.0333 63.0725 10.75L62.5747 10.7966L62.0769 10.8433C62.1282 11.3909 62.395 11.8952 62.8181 12.246L63.1372 11.8611ZM62.5747 10.7966L63.0725 10.75C63.046 10.4666 63.1334 10.1837 63.3151 9.96433L62.9302 9.64528L62.5452 9.32622C62.1943 9.74957 62.0256 10.2956 62.0769 10.8433L62.5747 10.7966ZM62.9302 9.64528L63.3154 9.96405C64.0183 9.11463 64.9823 8.52085 66.0572 8.2753L65.9458 7.78786L65.8344 7.30041C64.5448 7.59503 63.3883 8.3074 62.545 9.32651L62.9302 9.64528Z" fill="#9A4812"/>
</svg>
